General
Complete name                    : Natalee.Holloway.2009.dvdrip.xvid-dvsky
Format                           : AVI
Format/Info                      : Audio Video Interleave
File size                        : 702 MiB
Duration                         : 1h 27mn
Overall bit rate                 : 1 126 Kbps
Writing application              : VirtualDubMod 1.5.10.2 (build 2542/release)
Writing library                  : VirtualDubMod build 2542/release

Video
Format                           : MPEG-4 Visual
Format profile                   : Streaming Video@L1
Format settings, BVOP            : Yes
Format settings, QPel            : No
Format settings, GMC             : No warppoints
Format settings, Matrix          : Default
Codec ID                         : XVID
Codec ID/Hint                    : XviD
Duration                         : 1h 27mn
Bit rate                         : 986 Kbps
Width                            : 624 pixels
Height                           : 352 pixels
Display aspect ratio             : 16/9
Frame rate                       : 23.976 fps
Resolution                       : 24 bits
Colorimetry                      : 4:2:0
Scan type                        : Progressive
Bits/(Pixel*Frame)               : 0.187
Stream size                      : 615 MiB (88%)
Writing library                  : XviD 1.2.1 (UTC 2008-12-04)

Audio
Format                           : MPEG Audio
Format version                   : Version 1
Format profile                   : Layer 3
Codec ID                         : 55
Codec ID/Hint                    : MP3
Duration                         : 1h 27mn
Bit rate mode                    : Variable
Bit rate                         : 127 Kbps
Minimum bit rate                 : 135 Kbps
Channel(s)                       : 2 channels
Sampling rate                    : 48.0 KHz
Resolution                       : 16 bits
Stream size                      : 79.4 MiB (11%)
Alignment                        : Aligned on interleaves
Interleave, duration             : 24 ms (0.58 video frame)
Interleave, preload duration     : 144 ms
Writing library                  : LAME3.98r
Encoding settings                : ABR




Tracy Pollan          ... Beth Twitty

Grant Show            ... Jug Twitty

Catherine Dent        ... Carol

Amy Gumenick          ... Natalee Holloway

Sean Cameron Michael  ... Paul van der Sloot

Jacques Strydom       ... Joran Van Der Sloot




Plot: N/A